<svg width="200" height="36" viewBox="0 0 200 36" fill="none" xmlns="http://www.w3.org/2000/svg">
<path d="M3.18037 7.49461H6.10143L12.9699 24.271H13.2067L20.0752 7.49461H22.9962V27.7052H20.7067V12.3499H20.5094L14.1936 27.7052H11.983L5.66722 12.3499H5.46985V27.7052H3.18037V7.49461ZM26.1665 7.49461H28.9691L34.5744 16.9289H34.8112L40.4165 7.49461H43.2191L35.9165 19.3762V27.7052H33.4691V19.3762L26.1665 7.49461Z" fill="#959595"/>
<path d="M45.6937 27.7052V7.49461H53.6674C55.2003 7.49461 56.5062 7.78738 57.5851 8.3729C58.6641 8.95185 59.4865 9.75778 60.0523 10.7907C60.6246 11.817 60.9108 13.0012 60.9108 14.3433C60.9108 15.6854 60.6213 16.8696 60.0424 17.896C59.4634 18.9223 58.6246 19.7216 57.5259 20.294C56.4338 20.8664 55.1114 21.1525 53.5588 21.1525H48.4766V17.7282H52.868C53.6904 17.7282 54.368 17.5867 54.9009 17.3039C55.4404 17.0144 55.8417 16.6164 56.1049 16.1098C56.3746 15.5966 56.5095 15.0078 56.5095 14.3433C56.5095 13.6723 56.3746 13.0867 56.1049 12.5867C55.8417 12.0802 55.4404 11.6887 54.9009 11.4124C54.3614 11.1295 53.6772 10.988 52.8483 10.988H49.9667V27.7052H45.6937ZM64.836 27.7052H60.257L67.234 7.49461H72.7406L79.7077 27.7052H75.1288L70.0663 12.113H69.9084L64.836 27.7052ZM64.5498 19.7611H75.3656V23.0966H64.5498V19.7611ZM78.8936 7.49461H83.6798L88.2884 16.1986H88.4857L93.0943 7.49461H97.8805L90.5088 20.5604V27.7052H86.2653V20.5604L78.8936 7.49461Z" fill="white"/>
<path fill-rule="evenodd" clip-rule="evenodd" d="M114.717 24.7809L114.711 24.7886L114.706 24.7965C114.396 25.2342 113.704 25.3628 113.162 24.9803C112.729 24.6741 112.598 23.9919 112.968 23.4526C113.518 22.7505 113.918 21.9296 114.181 21.1272C114.455 20.2918 114.582 19.3425 114.577 18.4114C114.572 17.4804 114.435 16.5325 114.152 15.7C113.881 14.9004 113.472 14.0838 112.914 13.3876C112.539 12.8523 112.662 12.1687 113.092 11.8579C113.63 11.4697 114.324 11.5909 114.638 12.0253L114.643 12.0331L114.649 12.0408C115.344 12.957 115.914 13.9751 116.254 14.9738C116.613 16.1488 116.841 17.2853 116.847 18.3993C116.853 19.5716 116.741 20.6812 116.311 21.7735C115.843 22.9631 115.389 23.8747 114.717 24.7809ZM119.741 26.9568L119.754 26.9376L119.767 26.9176C121.307 24.4501 122.195 21.4727 122.179 18.3709C122.162 15.2699 121.243 12.3028 119.677 9.85226C119.338 9.31425 119.49 8.67814 120.062 8.26505C120.446 7.98762 121.167 8.08585 121.595 8.65916C123.363 11.4635 124.43 14.8536 124.449 18.3588C124.468 21.9838 123.437 25.2638 121.698 28.0886C121.296 28.6424 120.68 28.7975 120.149 28.4837C119.573 28.0618 119.468 27.3433 119.741 26.9568ZM128.756 4.97308L128.771 5.00304L128.789 5.03167C131.184 8.93647 132.515 13.4405 132.541 18.3157C132.567 23.1887 131.285 27.7048 128.934 31.6336C128.573 32.2132 127.965 32.3766 127.348 32.0895C126.786 31.7235 126.635 31.1171 126.929 30.5045C128.928 26.9533 130.172 22.7684 130.148 18.3285C130.125 13.9083 128.969 9.7302 126.795 6.17867C126.501 5.57225 126.647 4.96829 127.201 4.59815C127.871 4.27836 128.523 4.51275 128.756 4.97308ZM135.848 1.25696L135.858 1.27743L135.87 1.29729C138.772 6.31423 140.477 12.05 140.51 18.2733C140.544 24.4902 138.903 30.2384 136.06 35.2822C135.698 35.8552 135.093 36.0156 134.479 35.7298C133.919 35.365 133.767 34.7613 134.057 34.1507C136.796 29.4757 138.271 24.0595 138.24 18.2854C138.21 12.4965 136.547 7.10118 133.891 2.47231C133.559 1.79659 133.793 1.13479 134.258 0.899465C134.939 0.554049 135.611 0.788523 135.848 1.25696Z" fill="white"/>
</svg>
